<svg xmlns="http://www.w3.org/2000/svg" width="400" height="400" fill="none" viewBox="0 0 400 400"><path fill="#0046AD" fill-opacity=".1" d="M200 50C117.157 50 50 117.157 50 200C50 282.843 117.157 350 200 350C282.843 350 350 282.843 350 200C350 117.157 282.843 50 200 50Z"/><path fill="#0046AD" fill-opacity=".05" d="M200 80C134.772 80 80 134.772 80 200C80 265.228 134.772 320 200 320C265.228 320 320 265.228 320 200C320 134.772 265.228 80 200 80Z"/><rect width="200" height="100" x="100" y="150" fill="#fff" stroke="#2DDC2F" stroke-width="2" rx="10"/><path fill="#0046AD" d="M120 180H180C185.523 180 190 184.477 190 190V210C190 215.523 185.523 220 180 220H120C114.477 220 110 215.523 110 210V190C110 184.477 114.477 180 120 180Z"/><path fill="#0046AD" d="M220 180H280C285.523 180 290 184.477 290 190V210C290 215.523 285.523 220 280 220H220C214.477 220 210 215.523 210 210V190C210 184.477 214.477 180 220 180Z"/><path fill="#fff" d="M130 190H170C172.761 190 175 192.239 175 195V205C175 207.761 172.761 210 170 210H130C127.239 210 125 207.761 125 205V195C125 192.239 127.239 190 130 190Z"/><path fill="#fff" d="M230 190H270C272.761 190 275 192.239 275 195V205C275 207.761 272.761 210 270 210H230C227.239 210 225 207.761 225 205V195C225 192.239 227.239 190 230 190Z"/><path stroke="#0046AD" stroke-linecap="round" stroke-width="4" d="M190 170L210 230"/><path stroke="#2DDC2F" stroke-linecap="round" stroke-width="2" d="M200 160V240"/><circle cx="150" cy="200" r="5" fill="#2DDC2F"/><circle cx="250" cy="200" r="5" fill="#2DDC2F"/></svg>