<svg width="400" height="400" viewBox="0 0 400 400" fill="none" xmlns="http://www.w3.org/2000/svg">
  <path d="M200 50C117.157 50 50 117.157 50 200C50 282.843 117.157 350 200 350C282.843 350 350 282.843 350 200C350 117.157 282.843 50 200 50Z" fill="#0046AD" fill-opacity="0.1"/>
  <path d="M200 80C134.772 80 80 134.772 80 200C80 265.228 134.772 320 200 320C265.228 320 320 265.228 320 200C320 134.772 265.228 80 200 80Z" fill="#0046AD" fill-opacity="0.05"/>
  <path d="M110 150H290V250H110V150Z" fill="white"/>
  <path d="M110 150H290V250H110V150Z" stroke="#2DDC2F" stroke-width="2"/>
  <path d="M130 170H270V190H130V170Z" fill="#0046AD"/>
  <path d="M130 210H270V230H130V210Z" fill="#0046AD"/>
  <path d="M150 190H250V210H150V190Z" fill="white"/>
  <path d="M150 190H250V210H150V190Z" stroke="#0046AD" stroke-width="2"/>
  <path d="M170 170V230" stroke="white" stroke-width="4" stroke-linecap="round"/>
  <path d="M230 170V230" stroke="white" stroke-width="4" stroke-linecap="round"/>
  <path d="M200 190V210" stroke="#0046AD" stroke-width="4" stroke-linecap="round"/>
</svg>