<svg xmlns="http://www.w3.org/2000/svg" width="400" height="400" fill="none" viewBox="0 0 400 400"><path fill="#0046AD" fill-opacity=".1" d="M200 50C117.157 50 50 117.157 50 200C50 282.843 117.157 350 200 350C282.843 350 350 282.843 350 200C350 117.157 282.843 50 200 50Z"/><path fill="#0046AD" fill-opacity=".05" d="M200 80C134.772 80 80 134.772 80 200C80 265.228 134.772 320 200 320C265.228 320 320 265.228 320 200C320 134.772 265.228 80 200 80Z"/><path fill="#fff" d="M110 150H290V250H110V150Z"/><path stroke="#2DDC2F" stroke-width="2" d="M110 150H290V250H110V150Z"/><path fill="#0046AD" d="M130 170H270V190H130V170Z"/><path fill="#0046AD" d="M130 210H270V230H130V210Z"/><path fill="#fff" d="M150 190H250V210H150V190Z"/><path stroke="#0046AD" stroke-width="2" d="M150 190H250V210H150V190Z"/><path stroke="#fff" stroke-linecap="round" stroke-width="4" d="M170 170V230"/><path stroke="#fff" stroke-linecap="round" stroke-width="4" d="M230 170V230"/><path stroke="#0046AD" stroke-linecap="round" stroke-width="4" d="M200 190V210"/></svg>